#N canvas 652 24 633 988 12;
#N canvas 622 100 1920 997 amp 0;
#X obj 323 565 vline~;
#X obj 105 58 inlet;
#X obj 322 627 outlet~;
#X text 76 25 Note On;
#X msg 118 351 0.5 5 0 \, 0 100 5;
#X msg 476 349 0.5 5000 0 \, 0 2500 4000;
#X obj 116 316 spigot;
#X obj 274 316 spigot;
#X obj 471 311 spigot;
#X obj 668 317 spigot;
#X obj 105 116 bng 15 250 50 0 empty empty empty 17 7 0 10 #fcfcfc
#000000 #000000;
#X msg 665 348 0.5 5 0 \, 0 1000 200;
#X msg 280 355 0.5 500 0 \, 0 500 500;
#X obj 332 101 r env;
#X obj 331 138 unpack f f f f;
#X text 440 95 Envelope State x x x x;
#X connect 0 0 2 0;
#X connect 1 0 10 0;
#X connect 4 0 0 0;
#X connect 5 0 0 0;
#X connect 6 0 4 0;
#X connect 7 0 12 0;
#X connect 8 0 5 0;
#X connect 9 0 11 0;
#X connect 10 0 6 0;
#X connect 10 0 7 0;
#X connect 10 0 8 0;
#X connect 10 0 9 0;
#X connect 11 0 0 0;
#X connect 12 0 0 0;
#X connect 13 0 14 0;
#X connect 14 0 6 1;
#X connect 14 1 7 1;
#X connect 14 2 8 1;
#X connect 14 3 9 1;
#X restore 208 140 pd amp;
#N canvas 123 76 846 988 voice 0;
#X obj 109 610 outlet~;
#X obj 98 417 tabosc4~ wavetable;
#X obj 108 127 inlet;
#X obj 854 868 lop~;
#X obj 864 878 lop~;
#X connect 1 0 0 0;
#X connect 2 0 1 0;
#X restore 101 187 pd voice;
#N canvas 290 158 1920 997 pitch-note 0;
#X obj 99 61 inlet;
#X obj 92 115 unpack f f;
#X obj 167 311 outlet;
#X obj 245 236 sel 0;
#X obj 165 236 sel 1;
#X obj 255 311 outlet;
#X text 74 39 idx NoteOn/Off;
#X text 76 342 Pitch;
#X text 246 341 Note Off;
#X text 160 339 Note On;
#X obj 92 180 tabread notes;
#X obj 81 312 outlet;
#X connect 0 0 1 0;
#X connect 1 0 10 0;
#X connect 1 1 4 0;
#X connect 1 1 3 0;
#X connect 3 0 5 0;
#X connect 4 0 2 0;
#X connect 10 0 11 0;
#X restore 161 55 pd pitch-note;
#X obj 163 16 inlet;
#X text 280 23 Converts an incoming index into a frequency for the
voice. Also outputs NoteOn \, Note Off;
#X text 4 164 Voicing of the synth.;
#X text 239 167 Controls the envelope.;
#X obj 142 334 *~;
#X obj 130 427 outlet~;
#X obj 52 59 print i;
#X connect 0 0 7 1;
#X connect 1 0 7 0;
#X connect 2 0 1 0;
#X connect 2 1 0 0;
#X connect 3 0 2 0;
#X connect 3 0 9 0;
#X connect 7 0 8 0;
